<?xml version="1.0" encoding="utf-8"?>
<svg viewBox="97.265 72.136 305.47 355.728" xmlns="http://www.w3.org/2000/svg">
  <g fill="#000" transform="matrix(1, 0, 0, 1, 92.16500228889282, 427.06400172507756)">
    <path d="M11.5 -4.8C15.77 -1.07 21.67 0.8 29.21 0.8C36.74 0.8 42.63 -1.07 46.86 -4.8C51.09 -8.54 53.21 -13.77 53.21 -20.5L53.21 -67.01C53.21 -69.15 51.28 -70.21 47.41 -70.21L43.51 -70.21C39.64 -70.21 37.71 -69.15 37.71 -67.01L37.71 -21.5C37.71 -18.84 36.92 -16.64 35.36 -14.9C33.79 -13.17 31.74 -12.3 29.21 -12.3C26.61 -12.3 24.54 -13.15 23 -14.85C21.47 -16.55 20.7 -18.77 20.7 -21.5L20.7 -67.01C20.7 -69.15 18.77 -70.21 14.9 -70.21L10.9 -70.21C7.03 -70.21 5.1 -69.15 5.1 -67.01L5.1 -20.5C5.1 -13.77 7.23 -8.54 11.5 -4.8Z M60.41 -22.4C60.88 -21.6 61.61 -21.2 62.61 -21.2L79.72 -21.2C80.72 -21.2 81.45 -21.6 81.92 -22.4C82.38 -23.2 82.62 -24.47 82.62 -26.21L82.62 -26.91C82.62 -28.64 82.38 -29.91 81.92 -30.71C81.45 -31.51 80.72 -31.91 79.72 -31.91L62.61 -31.91C61.61 -31.91 60.88 -31.51 60.41 -30.71C59.95 -29.91 59.71 -28.64 59.71 -26.91L59.71 -26.21C59.71 -24.47 59.95 -23.2 60.41 -22.4Z M94.82 -0.65C98.02 0.32 101.25 0.8 104.52 0.8C109.32 0.8 113.36 -0.17 116.62 -2.1C119.89 -4.03 122.33 -6.58 123.93 -9.75C125.53 -12.92 126.33 -16.37 126.33 -20.1C126.33 -25.11 125.31 -29.14 123.28 -32.21C121.24 -35.27 117.92 -38.14 113.32 -40.81L111.02 -42.11C108.22 -43.64 106.17 -45.06 104.87 -46.36C103.57 -47.66 102.92 -49.54 102.92 -52.01C102.92 -53.48 103.42 -54.78 104.42 -55.91C105.42 -57.05 107.26 -57.61 109.92 -57.61C111.66 -57.61 113.82 -57.11 116.42 -56.11C117.82 -55.58 118.79 -55.31 119.33 -55.31C120.46 -55.31 121.41 -56.28 122.18 -58.21C122.94 -60.15 123.33 -61.98 123.33 -63.71C123.33 -65.18 122.73 -66.35 121.53 -67.21C120.13 -68.21 118.16 -69.06 115.62 -69.76C113.09 -70.46 110.69 -70.81 108.42 -70.81C102.09 -70.81 97 -69.11 93.17 -65.71C89.34 -62.31 87.42 -57.61 87.42 -51.61C87.42 -46.21 88.55 -41.91 90.82 -38.71C93.09 -35.51 96.75 -32.47 101.82 -29.61C104.02 -28.41 105.71 -27.41 106.87 -26.61C108.04 -25.81 109.02 -24.77 109.82 -23.5C110.62 -22.24 111.02 -20.7 111.02 -18.9C111.02 -16.5 110.26 -14.8 108.72 -13.8C107.19 -12.8 105.39 -12.3 103.32 -12.3C101.32 -12.3 99.02 -12.97 96.42 -14.3C95.89 -14.57 95.04 -15.04 93.87 -15.7C92.7 -16.37 91.85 -16.7 91.32 -16.7C90.12 -16.7 89.02 -15.74 88.02 -13.8C87.02 -11.87 86.52 -9.97 86.52 -8.1C86.52 -6.97 86.95 -5.8 87.82 -4.6C89.29 -2.93 91.62 -1.62 94.82 -0.65Z M139.13 -4.8C143.4 -1.07 149.3 0.8 156.83 0.8C164.37 0.8 170.25 -1.07 174.49 -4.8C178.72 -8.54 180.84 -13.77 180.84 -20.5L180.84 -67.01C180.84 -69.15 178.9 -70.21 175.04 -70.21L171.14 -70.21C167.27 -70.21 165.33 -69.15 165.33 -67.01L165.33 -21.5C165.33 -18.84 164.55 -16.64 162.98 -14.9C161.42 -13.17 159.37 -12.3 156.83 -12.3C154.23 -12.3 152.17 -13.15 150.63 -14.85C149.1 -16.55 148.33 -18.77 148.33 -21.5L148.33 -67.01C148.33 -69.15 146.4 -70.21 142.53 -70.21L138.53 -70.21C134.66 -70.21 132.73 -69.15 132.73 -67.01L132.73 -20.5C132.73 -13.77 134.86 -8.54 139.13 -4.8Z M196.84 -0.65C200.04 0.32 203.28 0.8 206.54 0.8C211.34 0.8 215.38 -0.17 218.65 -2.1C221.91 -4.03 224.35 -6.58 225.95 -9.75C227.55 -12.92 228.35 -16.37 228.35 -20.1C228.35 -25.11 227.33 -29.14 225.3 -32.21C223.26 -35.27 219.95 -38.14 215.35 -40.81L213.04 -42.11C210.24 -43.64 208.19 -45.06 206.89 -46.36C205.59 -47.66 204.94 -49.54 204.94 -52.01C204.94 -53.48 205.44 -54.78 206.44 -55.91C207.44 -57.05 209.28 -57.61 211.94 -57.61C213.68 -57.61 215.85 -57.11 218.45 -56.11C219.85 -55.58 220.81 -55.31 221.35 -55.31C222.48 -55.31 223.43 -56.28 224.2 -58.21C224.96 -60.15 225.35 -61.98 225.35 -63.71C225.35 -65.18 224.75 -66.35 223.55 -67.21C222.15 -68.21 220.18 -69.06 217.65 -69.76C215.11 -70.46 212.71 -70.81 210.44 -70.81C204.11 -70.81 199.03 -69.11 195.19 -65.71C191.36 -62.31 189.44 -57.61 189.44 -51.61C189.44 -46.21 190.57 -41.91 192.84 -38.71C195.11 -35.51 198.78 -32.47 203.84 -29.61C206.04 -28.41 207.73 -27.41 208.89 -26.61C210.06 -25.81 211.04 -24.77 211.84 -23.5C212.64 -22.24 213.04 -20.7 213.04 -18.9C213.04 -16.5 212.28 -14.8 210.74 -13.8C209.21 -12.8 207.41 -12.3 205.34 -12.3C203.34 -12.3 201.04 -12.97 198.44 -14.3C197.91 -14.57 197.06 -15.04 195.89 -15.7C194.72 -16.37 193.87 -16.7 193.34 -16.7C192.14 -16.7 191.04 -15.74 190.04 -13.8C189.04 -11.87 188.54 -9.97 188.54 -8.1C188.54 -6.97 188.97 -5.8 189.84 -4.6C191.31 -2.93 193.64 -1.62 196.84 -0.65Z M235.35 -3C235.35 -0.87 237.28 0.2 241.15 0.2L245.35 0.2C249.15 0.2 251.05 -0.87 251.05 -3L251.05 -29.11L268.16 -29.11L268.16 -3C268.16 -0.87 270.09 0.2 273.96 0.2L278.06 0.2C281.93 0.2 283.86 -0.87 283.86 -3L283.86 -67.01C283.86 -69.15 281.93 -70.21 278.06 -70.21L273.96 -70.21C270.09 -70.21 268.16 -69.15 268.16 -67.01L268.16 -42.31L251.05 -42.31L251.05 -67.01C251.05 -69.15 249.15 -70.21 245.35 -70.21L241.15 -70.21C237.28 -70.21 235.35 -69.15 235.35 -67.01Z M294.86 -3C294.86 -0.8 296.8 0.3 300.66 0.3L304.86 0.3C308.67 0.3 310.57 -0.8 310.57 -3L310.57 -67.01C310.57 -69.21 308.67 -70.31 304.86 -70.31L300.66 -70.31C296.8 -70.31 294.86 -69.21 294.86 -67.01Z"/>
  </g>
  <g fill="#ff1434" transform="matrix(1, 0, 0, 1, 116.200006309152, 72.136010291219)" style="transform-origin: 133.8px 133.8px;">
    <path d="M219.6 48.1c-22.9-22.9-53.4-35.5-85.8-35.5S71 25.2 48.1 48.1s-35.5 53.4-35.5 85.8 12.6 62.9 35.5 85.8 53.4 35.5 85.8 35.5 62.9-12.6 85.8-35.5 35.5-53.4 35.5-85.8-12.7-62.9-35.6-85.8z"/>
    <path d="M133.8 0C59.9 0 0 59.9 0 133.8s59.9 133.8 133.8 133.8 133.8-59.9 133.8-133.8S207.8 0 133.8 0zm0 260.1c-69.7 0-126.3-56.5-126.3-126.3S64.1 7.6 133.8 7.6s126.3 56.5 126.3 126.3-56.5 126.2-126.3 126.2z"/>
  </g>
  <g fill="#f2f2f2" transform="matrix(1.4567160606384275, 0, 0, 1.4567160606384275, 177.14633442679536, 133.0998249813888)" style="">
    <path d="M39.191 54.266L10.394 83.688a1.406 1.406 0 0 1-2.059-1.914l19.133-21.746L2.028 72.54a1.409 1.409 0 0 1-1.309-2.492L36.03 50.294 79.863.484A1.398 1.398 0 0 1 81.878.38l4.215 3.887c.664.613.528 1.57.051 2.02L51.589 41.595l43.633-24.406a1.388 1.388 0 0 1 1.93.57l2.683 5.07c.422.797-.023 1.656-.62 1.922zm28.902 13.52c-4.656 1.723-12.203 2.469-13.883 2.688 1.547 1.917 5.785 3.296 10.781 3.296 2.91 0 6.586-.644 9.7-1.605-.555-2.77-5.852-4.192-6.598-4.379zm3.965-4.535c-1.86-.246-7.653.347-10.367 1.05-4.356 1.126-8.676 3.051-7.946 5.387 1.594-.203 4.563-.62 9.114-1.418 6.988-1.215 8.558-3.207 9.199-5.02zm.86.094c-.415 1.308-1.177 2.714-3.606 3.914 1.902.593 5.593 2.066 6.187 4.648 3.235-1.09 5.684-2.516 5.684-3.86.004-2.234-3.492-4.117-8.266-4.702zm27.08 23.285C100 92.946 76.894 100 62.171 100s-26.656-5.12-26.656-11.437V70.618c0-6.317 23.105-13.371 37.828-13.371S100 62.375 100 68.692V86.63zM67.081 60.954c-16.89 1.847-28.367 7.945-28.21 9.82.152 1.875 7.737 9.265 27.788 7.808 21.051-1.64 28.422-8.062 29.973-9.906.52-2.125-9.234-9.738-29.55-7.722z"/>
  </g>
</svg>